<svg xmlns="http://www.w3.org/2000/svg" xmlns:xlink="http://www.w3.org/1999/xlink" viewBox="0 0 131.05 100.93"><defs><linearGradient id="a" x1="540.94" y1="501.36" x2="572.94" y2="501.36" gradientTransform="matrix(1.13, 0, 0, -1.13, -74.23, 1081.64)" gradientUnits="userSpaceOnUse"><stop offset="0" stop-color="#007940"/><stop offset="0.23" stop-color="#00873f"/><stop offset="0.74" stop-color="#40a737"/><stop offset="1" stop-color="#5cb531"/></linearGradient><linearGradient id="b" x1="540.94" y1="506.31" x2="572.91" y2="506.31" xlink:href="#a"/><linearGradient id="c" x1="540.94" y1="511.76" x2="572.94" y2="511.76" xlink:href="#a"/><linearGradient id="d" x1="469.31" y1="506.35" x2="501.8" y2="506.35" gradientTransform="matrix(1.13, 0, 0, -1.13, -74.23, 1081.64)" gradientUnits="userSpaceOnUse"><stop offset="0" stop-color="#1f286f"/><stop offset="0.48" stop-color="#004e94"/><stop offset="0.83" stop-color="#0066b1"/><stop offset="1" stop-color="#006fbc"/></linearGradient><linearGradient id="e" x1="504.96" y1="506.27" x2="536.51" y2="506.27" gradientTransform="matrix(1.13, 0, 0, -1.13, -74.23, 1081.64)" gradientUnits="userSpaceOnUse"><stop offset="0" stop-color="#6c2c2f"/><stop offset="0.17" stop-color="#882730"/><stop offset="0.57" stop-color="#be1833"/><stop offset="0.86" stop-color="#dc0436"/><stop offset="1" stop-color="#e60039"/></linearGradient></defs><title>JCB logo</title><path d="M577.52,542.12a20.37,20.37,0,0,1-20.35,20.35H446.48V481.88a20.37,20.37,0,0,1,20.35-20.35h110.7Z" transform="translate(-446.48 -461.54)" style="fill:#fff"/><path d="M541.48,521.45h8.41c.24,0,.8-.08,1-.08a3.75,3.75,0,0,0,3-3.76,3.89,3.89,0,0,0-3-3.76,4.23,4.23,0,0,0-1-.08h-8.41Z" transform="translate(-446.48 -461.54)" style="fill:url(#a)"/><path d="M548.93,468.34a14.58,14.58,0,0,0-14.58,14.58v15.14h20.59a8.24,8.24,0,0,1,1.44.08c4.65.24,8.09,2.64,8.09,6.81,0,3.28-2.32,6.09-6.65,6.65v.16c4.73.32,8.33,3,8.33,7,0,4.41-4,7.29-9.29,7.29H534.27v29.64h21.39a14.58,14.58,0,0,0,14.58-14.58V468.34Z" transform="translate(-446.48 -461.54)" style="fill:url(#b)"/><path d="M552.85,505.91a3.41,3.41,0,0,0-3-3.44c-.16,0-.56-.08-.8-.08h-7.61v7h7.61a2.23,2.23,0,0,0,.8-.08A3.41,3.41,0,0,0,552.85,505.91Z" transform="translate(-446.48 -461.54)" style="fill:url(#c)"/><path d="M468.34,468.34a14.58,14.58,0,0,0-14.58,14.58v36a28.83,28.83,0,0,0,12.58,3.28c5,0,7.77-3,7.77-7.21V498h12.5v16.9c0,6.57-4.09,11.94-17.94,11.94a61.49,61.49,0,0,1-15-1.84v30.68h21.39a14.58,14.58,0,0,0,14.58-14.58V468.34Z" transform="translate(-446.48 -461.54)" style="fill:url(#d)"/><path d="M508.64,468.34a14.58,14.58,0,0,0-14.58,14.58V502c3.68-3.12,10.09-5.13,20.43-4.65a65,65,0,0,1,11.45,1.76v6.17a27.73,27.73,0,0,0-11.05-3.2c-7.85-.56-12.58,3.28-12.58,10s4.73,10.65,12.58,10a29.09,29.09,0,0,0,11.05-3.2v6.17a63.45,63.45,0,0,1-11.45,1.76c-10.33.48-16.74-1.52-20.43-4.65v33.64h21.39A14.58,14.58,0,0,0,530,541.24V468.34Z" transform="translate(-446.48 -461.54)" style="fill:url(#e)"/></svg>